<?xml version="1.0" encoding="utf-8" standalone="no"?>
<!DOCTYPE svg PUBLIC "-//W3C//DTD SVG 1.1//EN"
  "http://www.w3.org/Graphics/SVG/1.1/DTD/svg11.dtd">
<svg xmlns:xlink="http://www.w3.org/1999/xlink" width="237.6pt" height="236.16pt" viewBox="0 0 237.6 236.16" xmlns="http://www.w3.org/2000/svg" version="1.1">
 <g id="figure_1">
  <g id="axes_1">
   <g id="patch_2">
    <path d="M 118.8 206.784 
C 142.477333 206.784 165.188091 197.437587 181.930493 180.8032 
C 198.672896 164.168813 208.08 141.604576 208.08 118.08 
C 208.08 94.555424 198.672896 71.991187 181.930493 55.3568 
C 165.188091 38.722413 142.477333 29.376 118.8 29.376 
C 95.122667 29.376 72.411909 38.722413 55.669507 55.3568 
C 38.927104 71.991187 29.52 94.555424 29.52 118.08 
C 29.52 141.604576 38.927104 164.168813 55.669507 180.8032 
C 72.411909 197.437587 95.122667 206.784 118.8 206.784 
z
" style="fill: #6A0DAD; opacity: 0.8"/>
   </g>
   <g id="patch_3">
    <path d="M 118.8 51.552 
Q 163.44 95.904 118.8 140.256 
Q 74.16 95.904 118.8 51.552 
z" style="fill: #B399D4; opacity: 0.9"/>
   </g>
  </g>
 </g>
</svg>
